<?xml version="1.0" encoding="UTF-8" standalone="no"?>
<!-- Created with Inkscape (http://www.inkscape.org/) -->

<svg
   width="792.56201mm"
   height="623.87811mm"
   viewBox="0 0 792.56201 623.87812"
   version="1.1"
   id="svg5"
   xml:space="preserve"
   sodipodi:docname="logo.svg"
   inkscape:version="1.2.2 (b0a8486541, 2022-12-01)"
   xmlns:inkscape="http://www.inkscape.org/namespaces/inkscape"
   xmlns:sodipodi="http://sodipodi.sourceforge.net/DTD/sodipodi-0.dtd"
   xmlns="http://www.w3.org/2000/svg"
   xmlns:svg="http://www.w3.org/2000/svg"><sodipodi:namedview
     id="namedview7"
     pagecolor="#ffffff"
     bordercolor="#000000"
     borderopacity="0.25"
     inkscape:showpageshadow="2"
     inkscape:pageopacity="0.0"
     inkscape:pagecheckerboard="0"
     inkscape:deskcolor="#d1d1d1"
     inkscape:document-units="mm"
     showgrid="false"
     inkscape:zoom="0.14965423"
     inkscape:cx="53.456557"
     inkscape:cy="972.24113"
     inkscape:window-width="1920"
     inkscape:window-height="1012"
     inkscape:window-x="0"
     inkscape:window-y="29"
     inkscape:window-maximized="1"
     inkscape:current-layer="layer1" /><defs
     id="defs2" /><g
     inkscape:label="Camada 1"
     inkscape:groupmode="layer"
     id="layer1"
     transform="translate(74.838706,-2.6614485)"><path
       style="fill:#009100;stroke-width:1.08468;fill-opacity:1"
       d="m 292.71931,566.7437 c -22.24798,-3.10883 -42.3508,-8.19322 -60.19995,-15.22573 C 182.71371,531.89468 140.33248,497.16422 110.96212,451.90459 89.865644,419.39496 75.355164,378.12195 71.336714,339.19563 c -1.60677,-15.56463 -0.67503,-51.01009 1.71254,-65.14834 7.13146,-42.22967 23.95631,-81.33482 49.675196,-115.45756 13.96581,-18.52926 38.38383,-41.17844 59.89945,-55.56032 82.68688,-55.271165 193.12494,-55.571735 276.28138,-0.75193 59.89439,39.48459 98.74146,100.13892 111.03708,173.36903 2.31795,13.80531 3.15597,44.98299 1.64799,61.31245 -9.41997,102.00618 -80.00235,189.52724 -177.70351,220.34967 -11.69096,3.68822 -26.44525,6.88715 -41.89935,9.08437 -12.26816,1.74424 -47.79115,1.95443 -59.26818,0.3507 z m 24.13422,-0.59723 c -1.3423,-0.25855 -3.53878,-0.25855 -4.88108,0 -1.3423,0.25853 -0.24405,0.47007 2.44054,0.47007 2.68459,0 3.78283,-0.21154 2.44054,-0.47007 z m 15.20049,0.002 c -1.3341,-0.25746 -3.77464,-0.26413 -5.42342,-0.0147 -1.64879,0.24931 -0.55726,0.45997 2.42562,0.46811 2.98288,0.008 4.33189,-0.19585 2.9978,-0.45331 z m -31.47075,-1.03956 c -0.74572,-0.3009 -1.96599,-0.3009 -2.71171,0 -0.74572,0.30091 -0.13559,0.54711 1.35585,0.54711 1.49144,0 2.10158,-0.2462 1.35586,-0.54711 z m 44.99179,0.063 c -0.36043,-0.36042 -1.29598,-0.39895 -2.07898,-0.0856 -0.86529,0.34626 -0.60827,0.60328 0.65533,0.65533 1.14343,0.0471 1.78408,-0.20927 1.42365,-0.5697 z m -54.2342,-1.08468 c -0.36043,-0.36043 -1.29598,-0.39896 -2.07898,-0.0856 -0.86528,0.34625 -0.60827,0.60328 0.65533,0.65532 1.14343,0.0471 1.78408,-0.20927 1.42365,-0.5697 z m 63.4766,-0.063 c -0.74572,-0.3009 -1.96599,-0.3009 -2.71171,0 -0.74572,0.3009 -0.13558,0.5471 1.35586,0.5471 1.49144,0 2.10157,-0.2462 1.35585,-0.5471 z m -76.4928,-2.10634 c -0.36043,-0.36043 -1.29599,-0.39895 -2.07899,-0.0856 -0.86528,0.34625 -0.60827,0.60328 0.65534,0.65532 1.14343,0.0471 1.78407,-0.20926 1.42365,-0.56969 z m 88.94407,0 c -0.36043,-0.36043 -1.29598,-0.39895 -2.07898,-0.0856 -0.86528,0.34625 -0.60827,0.60328 0.65534,0.65532 1.14343,0.0471 1.78407,-0.20926 1.42364,-0.56969 z m -25.5824,-14.55829 c 71.71295,-7.10388 136.52725,-47.28157 174.79017,-108.35053 20.95792,-33.4496 32.88024,-70.43448 35.58141,-110.3792 1.53819,-22.74657 -0.61015,-48.74861 -5.62346,-68.06258 -3.16967,-12.2112 -8.74207,-30.2283 -9.76312,-31.56681 -0.46868,-0.61441 -2.27797,-4.81988 -4.02063,-9.34549 -3.68468,-9.56896 -15.37676,-30.32682 -23.69484,-42.06727 -18.24628,-25.7535 -46.54345,-50.97191 -75.22764,-67.04282 -23.44956,-13.138105 -56.61045,-23.932935 -84.39438,-27.472815 -11.91619,-1.51821 -42.97786,-1.48413 -54.72012,0.06 -29.04632,3.81975 -57.85304,12.7736 -81.07633,25.200565 -35.94129,19.23245 -64.74453,45.60803 -86.4537,79.16696 -7.65808,11.8382 -19.73727,36.05522 -21.5888,43.28242 -0.90358,3.52705 -2.81462,8.97222 -4.24673,12.10038 -3.700026,8.08192 -9.102296,36.48256 -10.538576,55.40301 -2.85278,37.58044 4.6611,78.46024 20.765136,112.97435 8.10092,17.36184 6.50059,14.61886 24.86193,42.61348 2.06855,3.15382 5.10744,6.69297 6.75308,7.86476 1.64563,1.1718 4.273,4.3163 5.83858,6.98777 1.56559,2.67146 6.12675,7.71638 10.13593,11.21092 4.00917,3.49454 9.46925,8.46669 12.1335,11.04923 2.66425,2.58254 9.5572,8.20313 15.31766,12.4902 43.72116,32.5384 102.3417,49.1167 155.17093,43.88343 z M 204.76878,466.61113 c -10.54135,-3.48748 -16.41461,-7.47787 -20.97636,-14.2517 -7.37127,-10.94569 -8.90198,-21.5894 -4.94659,-34.3955 2.42689,-7.85734 6.74992,-14.82241 15.30433,-24.65762 5.53343,-6.36193 19.02536,-17.29873 21.34017,-17.29873 1.28987,0 3.42808,5.39632 11.30136,28.52192 5.39287,15.84005 5.52163,16.07806 9.93441,18.3641 3.52001,1.82355 6.43134,2.32171 13.69054,2.34263 8.9282,0.0257 28.81438,-2.33621 27.84353,-3.30704 -0.26325,-0.26326 -4.75338,0.0902 -9.97806,0.78549 -12.66375,1.68523 -28.59173,0.97353 -32.27873,-1.44229 -2.11212,-1.38391 -3.50449,-4.16111 -5.68837,-11.34594 -1.59043,-5.23241 -4.51834,-13.68851 -6.50645,-18.79132 -1.98811,-5.10282 -3.91371,-10.47201 -4.2791,-11.93153 l -0.66433,-2.65368 10.6235,-0.0704 c 7.2947,-0.0484 13.92908,-0.878 21.17282,-2.64768 5.80212,-1.41749 10.35007,-2.7765 10.10654,-3.02001 -0.24352,-0.24352 -4.80708,0.58184 -10.14123,1.83417 -12.31102,2.89028 -31.65942,3.21318 -34.30018,0.57242 -0.93749,-0.93751 -1.70451,-2.11697 -1.70451,-2.62106 0,-1.46608 -12.19276,-29.6666 -19.3595,-44.77642 -7.28307,-15.35506 -19.12842,-36.703 -27.99983,-50.46189 -7.23442,-11.22002 -11.2136,-19.005 -11.2136,-21.93858 0,-3.69284 2.92136,-8.24505 7.84713,-12.22781 27.61523,-22.32848 99.33563,-54.85901 155.79685,-70.66544 22.73115,-6.36363 33.59734,-8.44371 44.61533,-8.54059 14.55527,-0.12797 15.84525,1.30229 20.12268,22.31111 5.8379,28.67306 13.11838,53.98047 23.89267,83.0523 3.83063,10.33605 6.96479,19.85041 6.96479,21.14301 0,3.17595 -14.92537,17.55118 -19.10492,18.40073 -3.86296,0.7852 -26.99653,16.24082 -30.44753,20.34209 -5.37327,6.38578 -58.1751,30.11788 -83.07268,37.33754 -5.82901,1.69026 -10.41094,3.26046 -10.18206,3.48933 0.86086,0.86086 25.5606,-6.62143 36.50817,-11.05942 14.63348,-5.9322 31.66817,-13.59521 39.14198,-17.60791 3.22982,-1.7341 8.86502,-4.73715 12.52267,-6.67344 3.65766,-1.9363 7.07441,-4.42224 7.59279,-5.52432 1.16544,-2.47771 25.14804,-18.44048 27.70514,-18.44048 2.7335,0 17.05518,-12.76443 20.60883,-18.36797 l 3.06635,-4.83512 v 3.44446 c 0,3.9229 2.66426,11.3346 5.60313,15.58733 1.09431,1.58353 1.98966,3.91827 1.98966,5.18831 0,1.27003 1.22027,4.71724 2.71171,7.66046 3.23408,6.38215 3.31507,7.25509 0.74873,8.06962 -1.07963,0.34267 -3.88625,2.47423 -6.23693,4.73682 -2.35067,2.26258 -5.73828,5.02006 -7.52801,6.1277 -4.07971,2.52492 -14.25005,11.67881 -30.65098,27.58765 -21.82057,21.16588 -30.95808,29.0471 -35.30465,30.45075 -2.27076,0.7333 -9.10427,3.67893 -15.18557,6.54587 -6.08132,2.86694 -13.97982,6.06114 -17.55223,7.09825 -3.57241,1.03709 -8.23788,2.79391 -10.3677,3.90403 -2.12982,1.11013 -7.26071,3.20185 -11.40199,4.64828 -4.14127,1.44641 -6.93936,2.66618 -6.21797,2.71059 0.72139,0.0444 6.09057,-1.66297 11.93152,-3.79416 5.84095,-2.1312 13.79261,-4.99216 17.67036,-6.35771 3.87774,-1.36554 11.98303,-4.74697 18.01175,-7.51428 6.02872,-2.76731 11.51993,-5.03148 12.20269,-5.03148 3.77188,0 0.69896,2.52123 -23.70634,19.45023 -26.96281,18.70304 -65.43998,34.27067 -91.37443,36.96955 -14.01804,1.45878 -27.12898,0.72411 -33.65312,-1.88575 -4.91171,-1.96486 -12.13402,-9.85879 -13.89116,-15.18296 -1.83385,-5.55663 -0.75633,-18.32367 2.00032,-23.70069 1.24525,-2.42894 4.54642,-7.21804 7.33592,-10.64245 6.08558,-7.47068 5.58874,-9.51847 -0.66675,-2.74803 -13.33361,14.43125 -16.89696,38.03567 -7.16001,47.42942 1.89793,1.83102 7.35563,5.18903 12.12824,7.46222 l 8.67747,4.1331 14.10089,-0.12232 c 12.47571,-0.10825 15.81316,-0.5717 28.95739,-4.0213 8.17107,-2.14443 18.53988,-5.13544 23.04178,-6.64668 9.62279,-3.23027 41.77375,-19.09696 47.24941,-23.31787 2.08802,-1.60954 6.72504,-4.71948 10.3045,-6.91096 10.86576,-6.65246 26.24504,-20.12638 55.86122,-48.94054 23.13586,-22.50934 40.28589,-38.03766 44.3063,-40.11669 1.85675,-0.96016 6.07986,-3.94815 9.3847,-6.63998 3.30482,-2.69182 9.65265,-6.62382 14.10629,-8.73778 7.91125,-3.75516 10.77628,-5.86999 7.92343,-5.84869 -1.66596,0.0125 -8.86995,3.57758 -20.87685,10.33164 -4.73556,2.66383 -8.99659,4.84333 -9.46893,4.84333 -1.34688,0 -5.45548,-8.72504 -4.85072,-10.30102 0.29827,-0.77728 5.82354,-2.65484 12.27839,-4.17237 6.45484,-1.51754 14.90878,-3.94439 18.78653,-5.39301 15.5128,-5.79517 22.17053,-4.70455 25.56669,4.18815 1.78769,4.68102 1.79328,5.31776 0.0938,10.70908 -2.73528,8.67727 -9.0597,17.48465 -20.34326,28.32997 -21.55124,20.71422 -67.03221,52.90715 -108.36222,76.70235 -25.37339,14.60839 -72.65136,35.13244 -92.74048,40.25997 -18.00753,4.59623 -28.15352,6.32942 -39.59096,6.76316 -11.16139,0.42326 -13.33942,0.18667 -20.70013,-2.24853 z m 77.10369,-46.1315 c -2.69301,-0.86246 -2.69433,-0.86919 -0.19125,-0.97657 2.95246,-0.12664 18.76925,-5.28209 20.04962,-6.53512 0.48201,-0.47173 -0.14888,-2.82472 -1.40201,-5.22889 -1.25311,-2.40416 -2.67614,-6.74443 -3.16227,-9.64503 -1.18758,-7.08591 -4.91051,-16.40407 -7.77018,-19.44805 -1.85546,-1.97504 -2.24991,-3.50611 -1.93228,-7.49996 0.36447,-4.58255 0.20967,-4.96868 -1.78274,-4.44671 -1.20003,0.31439 -5.84267,1.38102 -10.31699,2.37031 -12.99859,2.87403 -24.31743,5.87805 -25.95031,6.88723 -1.27367,0.78717 -1.22789,1.52757 0.2926,4.73174 0.99139,2.08921 1.50926,4.56278 1.15084,5.49683 -0.79205,2.06405 4.19886,15.4817 7.6507,20.56826 1.37435,2.02522 3.81002,5.91963 5.41261,8.65424 2.9059,4.95855 2.93199,4.97307 9.61922,5.35522 11.52764,0.65876 11.29895,0.66654 8.33244,-0.2835 z m 6.21434,-0.65534 c -0.36043,-0.36043 -1.29598,-0.39896 -2.07898,-0.0856 -0.86529,0.34625 -0.60827,0.60328 0.65533,0.65532 1.14343,0.0471 1.78408,-0.20926 1.42365,-0.56969 z m -22.77836,-49.89546 c -0.36043,-0.36043 -1.29598,-0.39896 -2.07898,-0.0856 -0.86529,0.34625 -0.60827,0.60328 0.65533,0.65532 1.14343,0.0471 1.78408,-0.20927 1.42365,-0.5697 z m 4.90367,-1.14772 c -0.74572,-0.3009 -1.96599,-0.3009 -2.71171,0 -0.74572,0.30091 -0.13559,0.54711 1.35586,0.54711 1.49144,0 2.10157,-0.2462 1.35585,-0.54711 z M 381.5765,344.65852 c -2.50604,-4.20145 -5.53721,-8.50681 -6.73593,-9.56748 -2.12773,-1.88268 -2.163,-1.86061 -1.4854,0.92955 0.38175,1.57191 2.28524,5.28793 4.22999,8.25782 1.94474,2.96989 4.48656,7.05296 5.64849,9.0735 1.91158,3.32414 2.15002,3.44876 2.50595,1.30967 0.23198,-1.39422 -1.47588,-5.49788 -4.1631,-10.00306 z m 9.95836,-1.35856 c 2.0279,-0.6885 5.7286,-3.10872 8.22377,-5.37828 2.49519,-2.26956 6.31856,-4.87099 8.49637,-5.78094 3.69949,-1.54574 3.91107,-1.88728 3.21979,-5.19739 -1.05642,-5.05859 -4.02084,-9.83717 -7.03466,-11.33972 -2.98542,-1.4884 -5.90329,-0.14817 -12.77913,5.86969 -2.21752,1.9408 -6.83846,4.6302 -10.26878,5.97644 -3.43031,1.34624 -6.23693,2.7406 -6.23693,3.09858 0,0.35797 1.94179,3.65519 4.31508,7.32713 4.58481,7.09359 5.68767,7.58946 12.06449,5.42449 z M 212.4527,242.54167 c 38.83694,-9.06585 88.87091,-29.17413 121.4846,-48.82378 20.94632,-12.62009 18.98551,-12.26491 -9.25273,1.67604 -41.99648,20.73324 -95.26775,41.03089 -125.61768,47.86336 -6.65734,1.49872 -12.59237,3.20728 -13.18894,3.79678 -1.60137,1.58242 5.98001,0.2951 26.57475,-4.5124 z m 265.88592,267.15321 c 1.34921,-1.72037 1.31084,-1.75874 -0.40953,-0.40953 -1.04401,0.81877 -1.8982,1.67296 -1.8982,1.8982 0,0.89274 0.89073,0.31815 2.30773,-1.48867 z m -317.95074,-3.93475 c 0,-0.22524 -0.85419,-1.07943 -1.8982,-1.8982 -1.72037,-1.34921 -1.75874,-1.31084 -0.40953,0.40953 1.417,1.80682 2.30773,2.38141 2.30773,1.48867 z m 325.94751,-2.84452 c 1.07979,-1.19315 1.7192,-2.16937 1.42091,-2.16937 -0.29829,0 -1.4258,0.97622 -2.5056,2.16937 -1.07979,1.19315 -1.7192,2.16937 -1.42091,2.16937 0.29829,0 1.42581,-0.97622 2.5056,-2.16937 z m 20.06665,-20.06666 c 1.40114,-1.49144 2.30347,-2.71171 2.00518,-2.71171 -0.29829,0 -1.68872,1.22027 -3.08986,2.71171 -1.40114,1.49145 -2.30347,2.71171 -2.00518,2.71171 0.29829,0 1.68872,-1.22026 3.08986,-2.71171 z m -369.87721,-0.95187 c 0,-0.22524 -0.85418,-1.07942 -1.89819,-1.8982 -1.72038,-1.3492 -1.75874,-1.31084 -0.40954,0.40954 1.417,1.80681 2.30773,2.3814 2.30773,1.48866 z m -4.33873,-5.42342 c 0,-0.22524 -0.85419,-1.07942 -1.8982,-1.8982 -1.72037,-1.3492 -1.75874,-1.31084 -0.40953,0.40954 1.417,1.80681 2.30773,2.3814 2.30773,1.48866 z m -3.25405,-4.30343 c 0,-0.20583 -1.09824,-1.30407 -2.44054,-2.44054 l -2.44054,-2.06631 2.06631,2.44054 c 1.94182,2.2935 2.81477,2.93433 2.81477,2.06631 z m 391.70924,-6.94739 c 1.34921,-1.72037 1.31084,-1.75874 -0.40953,-0.40953 -1.04401,0.81877 -1.8982,1.67296 -1.8982,1.89819 0,0.89274 0.89073,0.31815 2.30773,-1.48866 z M 567.8853,351.94116 c -0.34626,-0.86529 -0.60328,-0.60827 -0.65533,0.65533 -0.0471,1.14343 0.20927,1.78408 0.5697,1.42365 0.36043,-0.36043 0.39896,-1.29598 0.0856,-2.07898 z m 1.08468,-7.59279 c -0.34625,-0.86529 -0.60328,-0.60827 -0.65532,0.65533 -0.0471,1.14343 0.20927,1.78408 0.5697,1.42365 0.36042,-0.36043 0.39895,-1.29598 0.0856,-2.07898 z M 73.280164,335.0814 c -0.27501,-1.05536 -0.51811,-0.45451 -0.54022,1.33522 -0.0221,1.78973 0.20291,2.6532 0.50003,1.91884 0.29712,-0.73437 0.3152,-2.19869 0.0402,-3.25406 z m 496.785216,-3.25405 c -0.27501,-1.05536 -0.51811,-0.45451 -0.54022,1.33522 -0.0221,1.78972 0.20291,2.6532 0.50003,1.91883 0.29712,-0.73436 0.3152,-2.19868 0.0402,-3.25405 z m -497.831416,-22.799 c -0.23402,-2.23716 -0.42548,-0.40676 -0.42548,4.06756 0,4.47432 0.19146,6.30473 0.42548,4.06757 0.23401,-2.23716 0.23401,-5.89797 0,-8.13513 z m 498.882786,4.88108 c -0.3009,-0.74573 -0.5471,-0.13559 -0.5471,1.35585 0,1.49144 0.2462,2.10158 0.5471,1.35585 0.30091,-0.74572 0.30091,-1.96598 0,-2.7117 z m -1.08468,-22.77837 c -0.3009,-0.74572 -0.5471,-0.13558 -0.5471,1.35586 0,1.49144 0.2462,2.10157 0.5471,1.35585 0.3009,-0.74572 0.3009,-1.96599 0,-2.71171 z M 73.246854,290.04638 c -0.3009,-0.74572 -0.5471,-0.13559 -0.5471,1.35585 0,1.49144 0.2462,2.10158 0.5471,1.35586 0.3009,-0.74572 0.3009,-1.96599 0,-2.71171 z m 495.700536,-9.76216 c -0.30091,-0.74572 -0.54711,-0.13558 -0.54711,1.35586 0,1.49144 0.2462,2.10157 0.54711,1.35585 0.3009,-0.74572 0.3009,-1.96599 0,-2.71171 z M 74.354134,279.26733 c -0.34626,-0.86528 -0.60328,-0.60827 -0.65532,0.65533 -0.0471,1.14343 0.20926,1.78408 0.56969,1.42365 0.36043,-0.36044 0.39896,-1.29598 0.0856,-2.07898 z m 1.08468,-6.5081 c -0.34625,-0.86529 -0.60328,-0.60827 -0.65532,0.65533 -0.0471,1.14343 0.20927,1.78408 0.5697,1.42365 0.36043,-0.36044 0.39895,-1.29598 0.0856,-2.07898 z M 120.39294,165.85006 c 1.3492,-1.72037 1.31084,-1.75874 -0.40953,-0.40953 -1.80682,1.417 -2.38141,2.30773 -1.48867,2.30773 0.22524,0 1.07943,-0.85419 1.8982,-1.8982 z m 397.94062,-7.1888 c 0,-0.22524 -0.85419,-1.07943 -1.89819,-1.8982 -1.72038,-1.34921 -1.75874,-1.31084 -0.40954,0.40953 1.417,1.80681 2.30773,2.3814 2.30773,1.48867 z m -6.5081,-7.59279 c 0,-0.22524 -0.85419,-1.07943 -1.8982,-1.8982 -1.72037,-1.34921 -1.75874,-1.31084 -0.40953,0.40953 1.417,1.80682 2.30773,2.38141 2.30773,1.48867 z m -372.04657,-8.81028 c 3.2404,-3.28117 5.6476,-5.96576 5.34931,-5.96576 -0.29829,0 -3.19359,2.68459 -6.434,5.96576 -3.2404,3.28117 -5.6476,5.96576 -5.34931,5.96576 0.29829,0 3.19359,-2.68459 6.434,-5.96576 z m 359.03036,-5.42342 c -4.44446,-4.47432 -8.32488,-8.13513 -8.62317,-8.13513 -0.29829,0 3.09403,3.66081 7.53849,8.13513 4.44446,4.47432 8.32488,8.13513 8.62317,8.13513 0.29829,0 -3.09403,-3.66081 -7.53849,-8.13513 z M 155.10282,126.80144 c 1.34921,-1.72037 1.31084,-1.75874 -0.40953,-0.40953 -1.80681,1.417 -2.3814,2.30773 -1.48866,2.30773 0.22523,0 1.07942,-0.85419 1.89819,-1.8982 z m 6.50811,-5.42342 c 1.3492,-1.72037 1.31084,-1.75873 -0.40954,-0.40953 -1.04401,0.81877 -1.89819,1.67296 -1.89819,1.89819 0,0.89274 0.89073,0.31815 2.30773,-1.48866 z m 5.8274,-4.60991 c 1.07979,-1.19315 1.7192,-2.16936 1.42091,-2.16936 -0.29829,0 -1.42581,0.97621 -2.5056,2.16936 -1.07979,1.19316 -1.7192,2.16937 -1.42091,2.16937 0.29829,0 1.4258,-0.97621 2.5056,-2.16937 z m 310.76193,1.75984 c 0,-0.22524 -0.85419,-1.07943 -1.8982,-1.89819 -1.72037,-1.34921 -1.75874,-1.31085 -0.40953,0.40952 1.417,1.80681 2.30773,2.38141 2.30773,1.48867 z M 283.74807,66.217315 c -0.36042,-0.36043 -1.29598,-0.39897 -2.07898,-0.0856 -0.86528,0.34626 -0.60827,0.60328 0.65534,0.65533 1.14343,0.0471 1.78407,-0.20927 1.42364,-0.5697 z m 78.09724,0 c -0.36042,-0.36043 -1.29598,-0.39897 -2.07898,-0.0856 -0.86528,0.34626 -0.60827,0.60328 0.65534,0.65533 1.14343,0.0471 1.78407,-0.20927 1.42364,-0.5697 z m -69.41976,-1.08468 c -0.36043,-0.36043 -1.29598,-0.39897 -2.07899,-0.0856 -0.86528,0.34626 -0.60826,0.60328 0.65534,0.65533 1.14343,0.0471 1.78408,-0.20927 1.42365,-0.5697 z m 61.30723,-0.063 c -0.74572,-0.30091 -1.96599,-0.30091 -2.71171,0 -0.74572,0.3009 -0.13559,0.5471 1.35585,0.5471 1.49145,0 2.10158,-0.2462 1.35586,-0.5471 z m -52.04419,-1.07781 c -0.73436,-0.29712 -2.19868,-0.3152 -3.25405,-0.0402 -1.05536,0.27502 -0.45451,0.51812 1.33522,0.54022 1.78972,0.0221 2.6532,-0.2029 1.91883,-0.50002 z m 42.28203,-0.007 c -0.74572,-0.3009 -1.96598,-0.3009 -2.71171,0 -0.74572,0.30091 -0.13558,0.5471 1.35586,0.5471 1.49144,0 2.10157,-0.24619 1.35585,-0.5471 z m -17.35494,-1.16052 c -2.53545,-0.22837 -6.68436,-0.22837 -9.21981,0 -2.53545,0.22836 -0.46099,0.4152 4.60991,0.4152 5.07089,0 7.14535,-0.18684 4.6099,-0.4152 z"
       id="path2066" /></g></svg>
