<?xml version="1.0" encoding="UTF-8" standalone="no"?>
<!-- Created with Inkscape (http://www.inkscape.org/) -->

<svg
   width="390.95703mm"
   height="299.09497mm"
   viewBox="0 0 390.95703 299.09497"
   version="1.1"
   id="svg5"
   xml:space="preserve"
   sodipodi:docname="studiomatos_logo.svg"
   inkscape:version="1.2.2 (b0a8486541, 2022-12-01)"
   xmlns:inkscape="http://www.inkscape.org/namespaces/inkscape"
   xmlns:sodipodi="http://sodipodi.sourceforge.net/DTD/sodipodi-0.dtd"
   xmlns="http://www.w3.org/2000/svg"
   xmlns:svg="http://www.w3.org/2000/svg"
   xmlns:inkstitch="http://inkstitch.org/namespace"><metadata
     id="metadata1040"><inkstitch:min_stitch_len_mm>0.1</inkstitch:min_stitch_len_mm><inkstitch:collapse_len_mm>3</inkstitch:collapse_len_mm><inkstitch:inkstitch_svg_version>3</inkstitch:inkstitch_svg_version></metadata><sodipodi:namedview
     id="namedview7"
     pagecolor="#ffffff"
     bordercolor="#000000"
     borderopacity="0.25"
     inkscape:showpageshadow="2"
     inkscape:pageopacity="0.0"
     inkscape:pagecheckerboard="0"
     inkscape:deskcolor="#d1d1d1"
     inkscape:document-units="mm"
     showgrid="false"
     inkscape:zoom="0.45234509"
     inkscape:cx="616.78574"
     inkscape:cy="470.87943"
     inkscape:window-width="1920"
     inkscape:window-height="1041"
     inkscape:window-x="1920"
     inkscape:window-y="0"
     inkscape:window-maximized="1"
     inkscape:current-layer="layer1" /><defs
     id="defs2" /><g
     inkscape:label="Camada 1"
     inkscape:groupmode="layer"
     id="layer1"
     transform="translate(180.95699,2.0949786)"><path
       style="display:inline;fill:#41a86e;fill-opacity:1;stroke-width:0.51122"
       d="m -98.368095,296.60933 c -3.395255,-1.00769 -6.848075,-5.21859 -7.059595,-8.6098 -0.0983,-1.57445 0.15793,-2.21841 1.3859,-3.48338 0.8286,-0.85352 2.19971,-1.84997 3.04698,-2.21447 4.425413,-1.9035 26.808273,-5.72985 44.181122,-7.55279 16.609979,-1.74284 49.4447156,-3.78715 63.4184504,-3.94846 3.6674506,-0.0424 10.5926956,-0.13087 15.3893456,-0.19658 22.49827,-0.30896 57.461226,1.811 76.291628,4.62581 13.140734,1.96425 16.168304,4.94794 12.226374,12.04925 -3.46146,6.23554 -5.3568,7.23073 -11.889729,6.24265 -2.425233,-0.36695 -8.744718,-1.32616 -14.043263,-2.13085 -13.393524,-2.03529 -48.507393,-4.96746 -60.968839,-5.09138 -27.4854611,-0.27315 -64.868626,2.74016 -99.914896,8.05385 -15.914611,2.41299 -16.732694,2.52868 -18.638122,2.63651 -0.990522,0.0555 -2.53172,-0.1191 -3.425347,-0.38031 z m -82.109495,-29.70405 c -1.03204,-1.44045 -0.3554,-5.32848 1.62207,-9.32617 1.01147,-2.04396 4.49381,-11.71329 7.73906,-21.48738 3.24524,-9.77417 6.48319,-19.45945 7.19557,-21.52285 0.7122,-2.06339 3.08208,-9.04435 5.26614,-15.51313 10.10344,-29.92479 14.85126,-41.10186 18.414,-43.34961 2.03449,-1.28349 12.53801,-4.27897 15.29302,-4.36133 3.09009,-0.0934 4.70303,1.05518 5.21686,3.7124 0.20766,1.07264 0.8218,7.05569 1.3653,13.29575 1.09246,12.54146 2.10946,21.34286 2.52114,21.8176 0.35401,0.40826 0.50195,-0.008 2.62663,-7.32371 2.3995,-8.26449 6.76921,-20.05431 10.83901,-29.24415 3.375397,-7.62196 4.34757,-9.17999 6.640331,-10.64271 1.720782,-1.09772 17.969361,-5.76379 20.711251,-5.94755 1.929031,-0.12906 2.217155,0.003 2.97789,1.36556 0.766538,1.37367 0.751361,3.22408 -0.173974,20.67868 -1.513077,28.54397 -2.353055,73.90521 -1.490489,80.50008 0.293372,2.24571 1.295311,5.628 2.486412,8.39676 1.097091,2.55007 1.947145,5.30368 1.88912,6.11915 -0.146242,2.05535 -2.802041,3.83034 -9.076275,6.06611 -2.785956,0.99275 -7.61603,2.86107 -10.733404,4.15182 -6.16829,2.5541 -7.928156,2.77214 -8.686161,1.07645 -0.319143,-0.7134 -0.103016,-7.55685 0.626368,-19.81523 2.048615,-34.44394 2.977041,-53.8723 2.540554,-53.17319 -0.237478,0.38109 -3.76607,9.5657 -7.840523,20.4102 -5.28806,14.07436 -7.74704,20.01524 -8.59238,20.75907 -1.17533,1.03408 -11.92448,3.40664 -14.57876,3.21775 -2.41732,-0.17217 -2.7115,-1.37796 -4.65881,-19.10002 -1.67127,-15.20926 -2.67915,-26.1282 -2.57773,-27.92556 0.0198,-0.35095 -0.15437,-0.65174 -0.38634,-0.66821 -0.86081,-0.0612 -6.33785,21.07541 -8.98879,34.69048 -3.54391,18.20149 -5.90261,29.52682 -6.63328,31.84965 -1.42792,4.53945 -3.98593,5.74723 -22.71708,10.72592 -6.57407,1.74738 -7.92875,1.83434 -8.83663,0.56719 z m 307.30351,6.97972 c -5.8809,-1.34206 -10.84834,-4.13562 -13.4649,-7.57217 -2.56911,-3.37418 -2.94881,-5.21233 -2.29216,-11.09466 0.49043,-4.3912 0.77711,-5.31602 2.7166,-8.74706 3.26879,-5.78394 7.45561,-10.67958 14.11554,-16.50545 7.25806,-6.34892 10.45857,-8.00159 14.13471,-7.29872 3.16296,0.60462 7.55613,3.09248 9.02137,5.10852 1.42503,1.96085 1.14442,2.93195 -3.11516,10.77874 -4.38006,8.06871 -4.39007,7.6316 0.18237,7.95685 6.64822,0.47307 17.94903,-2.13678 25.44022,-5.87528 3.59944,-1.79633 9.08182,-5.74591 9.1416,-6.58588 0.0437,-0.61398 -7.09005,-5.99957 -11.11434,-8.39079 -1.71769,-1.02054 -7.50134,-4.01011 -12.85263,-6.6435 -12.06711,-5.93824 -17.94548,-9.70751 -22.16818,-14.21442 -7.24244,-7.72998 -8.85742,-18.82636 -4.02527,-27.65595 1.95154,-3.56576 6.79788,-8.39737 11.55401,-11.51899 2.16671,-1.42214 7.99581,-4.73554 12.95354,-7.36331 10.10414,-5.35529 10.68967,-5.47253 15.46959,-3.09686 3.37073,1.67527 5.99813,3.99981 7.86955,6.96274 0.76028,1.20329 1.51306,2.2025 1.67333,2.22057 0.16011,0.0162 0.41188,-1.74594 0.55847,-3.92008 0.3671,-5.42321 2.13297,-8.29816 6.13903,-9.99608 3.32427,-1.40892 10.96584,-0.26605 13.57488,2.02864 l 1.19552,1.05188 -1.1899,3.41236 c -2.69128,7.71802 -5.97042,19.18793 -8.91655,31.18893 -1.71857,7.00079 -3.43089,13.04832 -3.80497,13.43895 -0.92327,0.964 -3.85771,0.68884 -10.38425,-0.97392 -5.80095,-1.47778 -7.63952,-2.47872 -7.93211,-4.31796 -0.10139,-0.63836 -0.13061,-4.81145 -0.0659,-9.27453 0.0654,-4.46319 -0.0877,-8.35283 -0.33956,-8.64366 -0.8207,-0.94642 -19.06178,14.11997 -19.18455,15.84562 -0.1226,1.72167 6.79217,5.82975 20.13287,11.96119 13.20603,6.0695 20.53127,9.80956 24.02063,12.26426 11.07323,7.78971 15.28061,14.29661 13.86629,21.44505 -1.93473,9.77816 -14.9022,21.47487 -30.57375,27.57764 -14.28487,5.56279 -28.33036,7.95762 -42.39789,7.22893 -4.6339,-0.24056 -9.1059,-0.59527 -9.93868,-0.77736 z M -23.391473,261.57838 c -0.962833,-1.22909 -4.590136,-19.39747 -5.766292,-28.882 -0.37749,-3.04697 -0.824596,-4.69192 -1.339784,-4.93283 -0.915701,-0.42802 -9.462306,0.3664 -13.349768,1.24103 -2.016941,0.45431 -2.950861,0.97462 -3.57214,1.99177 -0.773849,1.26667 -2.366101,8.09827 -3.77504,16.19463 -0.547151,3.14374 -1.634728,5.02646 -2.835431,4.90806 -0.306422,-0.0298 -3.813545,-2.64368 -7.793331,-5.80788 -5.229365,-4.15755 -7.460123,-6.264 -8.044044,-7.59619 -1.964863,-4.4819 0.899166,-18.06869 10.165729,-48.22961 2.203598,-7.17211 5.589484,-18.92402 7.524211,-26.11533 1.934718,-7.19123 3.896937,-13.78714 4.360511,-14.65754 0.463399,-0.87039 1.505567,-1.85996 2.315533,-2.19905 1.187813,-0.49754 9.735587,-1.86258 18.421193,-2.94236 2.104102,-0.26148 4.597255,0.96618 5.454891,2.68608 0.415794,0.83339 1.126588,4.63005 1.579921,8.43675 2.546324,21.3811 3.627879,28.0446 6.037913,37.20065 0.956029,3.63194 1.875109,7.01699 2.042519,7.52219 0.344992,1.04003 3.771381,1.46122 7.8767623,0.96813 3.89326358,-0.46718 5.1571036,0.52908 6.7695827,5.33976 1.9728863,5.88551 2.0026013,7.20486 0.1949712,8.65577 -0.8106474,0.65057 -3.60299933,1.89339 -6.2045687,2.76098 -2.6014815,0.86766 -4.878226,1.89468 -5.0595553,2.28229 -0.6389835,1.36694 2.5262498,20.55951 4.5655584,27.68085 1.403125,4.90009 1.4178209,7.19297 0.052892,8.24904 -1.6965381,1.31255 -16.1954206,6.40486 -17.8923476,6.28409 -0.532882,-0.038 -1.311837,-0.50537 -1.729903,-1.03946 z m -17.291085,-52.15814 c 4.048385,-1.18871 7.010745,-2.8214 7.088128,-3.90633 0.03479,-0.48756 -0.372597,-2.88171 -0.905783,-5.32111 -0.532932,-2.43934 -1.282052,-7.6819 -1.664823,-11.65005 -0.382934,-3.96825 -0.854881,-6.88026 -1.049302,-6.47125 -0.194731,0.40864 -0.955764,4.04489 -1.692032,8.07983 -0.735912,4.0349 -2.214072,10.0639 -3.284215,13.39782 -2.045442,6.37225 -2.135279,6.71705 -1.757293,6.74392 0.129962,0.0103 1.599115,-0.38323 3.26532,-0.87283 z m 52.458331,52.42681 c -1.22242,-1.79396 -1.204398,-2.00633 2.112854,-24.88787 1.659109,-11.44144 5.470709,-41.31162 6.541014,-51.25727 0.861281,-8.00207 0.899283,-9.33536 0.26041,-9.14108 -0.411238,0.12518 -3.66509,0.75909 -7.231059,1.40889 C 9.8932113,178.61946 3.8365686,179.83106 0,180.6621 c -3.8366708,0.83111 -7.3833502,1.48202 -7.8816055,1.44657 -1.4438283,-0.10268 -2.7683505,-2.59546 -3.7934195,-7.13945 -1.369052,-6.06871 -2.378989,-14.61332 -1.89978,-16.07415 0.805881,-2.45603 3.023829,-3.42168 9.5690722,-4.1654 22.4453778,-2.55072 30.9842998,-3.71963 39.2688488,-5.37571 11.098308,-2.21863 33.356985,-7.81102 42.239778,-10.61249 7.532877,-2.37584 9.647976,-2.61332 11.398355,-1.27971 1.798563,1.37034 2.657905,4.28862 2.108775,7.16072 -0.505433,2.64364 -8.18682,16.03908 -10.655582,18.58239 -2.175375,2.24102 -3.632755,2.69447 -10.209896,3.17688 -3.253045,0.23843 -9.167147,0.88001 -13.142315,1.42523 -6.415932,0.87994 -7.430052,1.16121 -9.029033,2.50459 -0.990762,0.83237 -2.135006,2.4202 -2.542945,3.52861 -0.534603,1.45236 -1.51823,12.7992 -3.521986,40.6261 -2.768891,38.42066 -2.782756,38.61584 -3.91756,39.5973 -1.3858,1.20174 -21.346169,8.20568 -23.894852,8.38447 -1.186431,0.0832 -1.99807,-0.12337 -2.321047,-0.60079 z m 61.786728,-1.21113 c -4.687498,-1.46245 -9.83375,-6.19779 -12.614736,-11.60727 -2.060236,-4.00757 -3.871379,-11.2958 -4.215731,-16.96473 -0.376829,-6.21015 0.951498,-17.89241 2.821214,-24.80776 5.367189,-19.84923 20.79068,-41.29664 36.12485,-50.23435 6.263602,-3.6508 11.190592,-4.47823 16.019872,-2.69037 3.10617,1.14994 8.26679,7.36843 10.53246,12.69134 11.11649,26.11787 1.43223,66.12306 -20.40531,84.2928 -10.433552,8.68109 -20.096981,11.86787 -28.262619,9.32034 z m 12.286276,-23.09997 c 5.631427,-2.09607 10.552592,-9.92165 14.231923,-22.63175 1.32632,-4.58138 1.64245,-6.84372 2.41154,-17.25386 0.93379,-12.63151 0.75725,-14.95341 -1.19032,-15.72766 -1.25166,-0.49757 -2.474981,0.12363 -5.091517,2.58617 -8.167784,7.68652 -15.349443,25.49174 -16.632099,41.23591 -0.574217,7.08344 -0.181021,9.60302 1.79224,11.39566 1.49862,1.3618 1.808883,1.38913 4.478117,0.39743 z M -142.24565,143.30699 c -13.15222,-2.67583 -23.79921,-12.88968 -20.84975,-20.00143 1.92967,-4.65276 13.19529,-14.48058 23.00042,-20.06504 11.52166,-6.562036 18.61975,-7.532553 20.72051,-2.83293 0.76457,1.71046 -0.85157,4.8718 -5.67981,11.11215 -4.7838,6.18239 -7.08298,10.23845 -6.30944,11.13055 1.08972,1.25676 13.52516,-4.64591 20.82941,-9.88697 7.9564,-5.70905 20.429352,-16.960252 20.12396,-18.152707 -0.07005,-0.272244 -8.965539,-1.087694 -21.01601,-1.926771 -25.68492,-1.783808 -35.06034,-2.924303 -38.85756,-4.710879 -5.86584,-2.760494 -9.59436,-7.35796 -10.64177,-13.121693 -0.71184,-3.917426 -0.20152,-6.751917 2.32013,-12.889604 5.79361,-14.101005 24.34308,-33.268506 44.17123,-45.643116 6.96282,-4.345448 8.02913,-4.168963 10.29777,1.704221 1.34806,3.489911 3.35547,7.164468 2.85329,5.222959 -0.11138,-0.430466 -0.59639,-2.409683 -1.0786,-4.397668 l -0.8761,-3.614508 1.34827,-2.15631 c 1.66153,-2.657313 7.49275,-7.3592817 10.728704,-8.6509914 2.162994,-0.8634149 2.52961,-0.8775651 3.648651,-0.1400996 3.244488,2.1373898 4.15206,8.312895 4.179329,28.437474 0.01125,8.034384 0.261992,16.375114 0.557974,18.535087 0.49336,3.599015 0.460963,4.054284 -0.391215,5.448724 -0.510963,0.836685 -2.357036,2.466965 -4.101984,3.622202 -3.701487,2.450696 -10.562311,5.683065 -11.884781,5.599356 -2.718668,-0.174581 -4.552568,-5.326686 -5.635118,-15.84056 -0.40799,-3.961032 -0.86755,-7.442469 -1.02159,-7.736568 -0.40518,-0.772991 -1.2878,-0.02147 -6.44234,5.455746 -9.00945,9.58011 -18.20135,20.773299 -18.30973,22.296348 -0.0255,0.357581 0.45804,0.855681 1.07435,1.108152 0.61666,0.252625 12.70176,1.379788 26.85675,2.506252 23.668711,1.883992 26.003249,2.147584 29.061113,3.287251 5.661636,2.109706 8.915173,6.837306 9.730266,14.138766 0.293818,2.633851 0.188428,4.041184 -0.492664,6.553243 -1.86164,6.878714 -8.173942,15.923354 -16.226228,23.249784 -15.550941,14.14901 -31.493807,21.78189 -48.153937,23.05425 -5.85615,0.44762 -8.61736,0.30542 -13.53477,-0.6948 z m 84.040375,-6.31149 c -0.515918,-0.65819 -0.912483,-2.29271 -0.981219,-4.04174 -0.179336,-4.56293 3.445544,-50.823429 4.760942,-60.759839 0.646665,-4.886999 1.440575,-11.634066 1.76291,-14.993724 l 0.586304,-6.108422 -1.305504,0.03841 c -0.717504,0.01875 -5.545,1.07881 -10.72666,2.350913 -6.536125,1.604752 -9.740688,2.168327 -10.464616,1.840334 -1.468132,-0.665427 -2.681476,-3.852106 -3.807271,-10.001057 -1.163868,-6.356687 -0.76092,-10.475924 1.335416,-13.654739 2.119488,-3.213517 4.931338,-4.471499 11.758716,-5.26045 3.250249,-0.3753 7.872711,-1.09994 10.272007,-1.609575 2.399195,-0.509474 8.569817,-1.716742 13.712419,-2.682588 5.142683,-0.965793 17.191711,-3.376924 26.775754,-5.357949 28.636521,-5.919239 31.26448,-6.202076 33.076536,-3.560126 0.927496,1.352177 0.963245,1.881089 0.409119,6.051054 -1.578198,11.868774 -8.628766,19.746967 -20.7628694,23.198823 -1.8967545,0.539133 -8.2772416,1.912895 -14.1788386,3.051825 -5.901567,1.138904 -11.561041,2.403624 -12.576557,2.810489 -1.156251,0.462912 -2.384081,1.563474 -3.284605,2.943611 l -1.438095,2.203954 -1.459044,18.065322 c -2.107244,26.090298 -2.081245,40.753804 0.09355,52.017174 1.019554,5.28045 1.017727,7.45578 -0.007,8.63342 -1.515246,1.74094 -17.104893,6.32784 -20.649279,6.07564 -1.400836,-0.0994 -2.306556,-0.48933 -2.902117,-1.25023 z m 45.205204,3.19788 c -0.649625,-0.31885 -3.577919,-2.26567 -6.506719,-4.32711 -6.238446,-4.391 -7.494068,-6.16304 -7.851502,-11.08101 -0.905317,-12.45885 6.409884,-47.892578 13.756965,-66.636426 2.055112,-5.243055 3.9964867,-8.15837 6.0093029,-9.024074 1.4946276,-0.64308 11.6949561,-2.49341 13.1667898,-2.388662 0.3916055,0.02793 1.200564,0.507011 1.7969302,1.064378 l 1.0844117,1.013697 -1.2866248,5.762712 C 6.4618461,57.746391 4.7440311,65.10192 3.3521699,70.922334 c -4.29064581,17.942727 -8.5617023,38.370836 -8.8539567,42.348636 -0.098645,1.33342 0.014484,1.43673 1.319666,1.21448 4.97476434,-0.84672 17.3157218,-7.06237 19.1402488,-9.64018 0.947261,-1.33855 1.806719,-9.052315 4.422743,-39.701283 2.408637,-28.219111 2.071473,-26.63606 6.416952,-30.105052 2.555495,-2.039988 6.052486,-3.561973 11.658843,-5.074249 3.254631,-0.877989 3.636341,-0.884023 4.860586,-0.0775 2.627798,1.731143 2.655931,3.724868 0.361113,25.63948 -1.128502,10.772177 -3.084467,32.655297 -4.347758,48.629134 -1.376307,17.40732 -2.522482,29.40123 -2.859459,29.93639 -0.750975,1.19117 -13.954735,6.54349 -15.815734,6.41106 -1.876688,-0.13357 -3.193135,-1.67449 -4.475174,-5.23793 -0.561984,-1.56251 -1.220946,-2.85514 -1.463949,-2.87244 -0.243245,-0.0187 -2.788363,0.87051 -5.6563758,1.97298 -8.08934057,3.10939 -16.6729948,6.01968 -18.3536922,6.22267 -0.838211,0.10165 -2.056159,-0.0762 -2.706052,-0.39502 z m 62.282421,-4.592 c -5.758205,-3.49235 -7.074974,-8.63984 -6.011775,-23.5011 1.169104,-16.316092 4.716997,-38.226382 11.007793,-67.945038 1.251842,-5.914456 2.32322,-11.412869 2.380559,-12.218741 0.07777,-1.090071 -0.66403,-2.432104 -2.897408,-5.242323 C 48.42552,19.979111 48.61612,17.43732 54.877498,11.748106 61.607557,5.637823 69.159855,1.2017212 76.99384,-1.242778 c 3.543175,-1.1056602 7.140742,-1.1398988 8.062712,-0.076674 1.277393,1.47322519 -0.04565,6.8855423 -3.21566,13.160173 -0.800889,1.584719 -1.350458,3.319151 -1.221682,3.854255 0.128673,0.535085 1.784895,2.523168 3.680112,4.417959 6.12125,6.119989 9.371827,9.970691 13.521937,16.018188 5.289261,7.70757 6.397621,9.673383 9.030971,16.018085 4.31151,10.3878 5.69134,19.387175 4.52834,29.535449 -2.47916,21.634983 -14.985718,36.933523 -40.297371,49.293193 -13.606948,6.64434 -17.212769,7.40883 -21.805354,4.62331 z m 21.590886,-28.90442 c 3.370249,-1.83892 11.701144,-9.484192 14.113859,-12.952219 8.709698,-12.519595 8.47303,-24.297193 -0.781284,-38.886637 -2.214287,-3.490749 -8.316257,-9.943872 -9.042929,-9.563156 -1.114903,0.584214 -5.548481,28.324734 -7.044075,44.074382 -1.310874,13.80211 -1.402807,18.60699 -0.360905,18.68112 0.308737,0.0215 1.710742,-0.58735 3.115334,-1.35349 z m 86.743754,35.18489 c -8.65872,-2.60959 -14.29173,-9.39838 -17.90969,-21.58413 -4.07693,-13.73181 -3.75001,-33.267535 0.83094,-49.652983 5.22318,-18.682434 16.78927,-35.612265 27.22072,-39.844088 2.61489,-1.060758 3.70767,-1.2118 6.92695,-0.957398 4.73325,0.371868 8.09119,1.897795 12.31212,5.586673 8.6093,7.524263 15.96059,25.271161 17.6515,42.612681 0.51439,5.275345 0.4638,7.690285 -0.33233,15.892365 -1.24018,12.772 -3.14878,19.08398 -8.81776,29.16205 -5.29913,9.42052 -11.413,15.37961 -18.94792,18.46824 -4.37426,1.79301 -4.62192,1.83088 -10.14125,1.54974 -3.43563,-0.17432 -6.88893,-0.6596 -8.79293,-1.23315 z m 11.01812,-18.42033 c 3.19057,-2.16159 6.65326,-9.8167 9.67237,-21.38246 2.17453,-8.330517 3.59115,-26.032192 2.66516,-33.30184 -1.14572,-8.992338 -3.1303,-13.035631 -6.01439,-12.253325 -4.07726,1.105967 -10.32206,14.520957 -14.41478,30.965775 -4.0694,16.35116 -2.76979,31.45996 3.06248,35.61152 1.96012,1.39524 3.35432,1.49524 5.02928,0.35981 z m -62.8983,11.56669 c -1.19046,-1.75705 -1.12386,-2.75907 0.62013,-9.33077 1.30274,-4.91047 3.97071,-18.1647 6.46594,-32.122005 0.59703,-3.340078 1.46883,-11.119464 1.93665,-17.287671 0.46579,-6.168245 1.06213,-11.722443 1.32102,-12.343047 0.60664,-1.45513 2.82595,-2.350732 11.07748,-4.46962 5.04189,-1.294567 6.92067,-1.579626 7.51258,-1.139797 0.69187,0.513799 0.68238,1.927702 -0.0764,11.481947 -1.40833,17.732246 -7.34739,58.931973 -8.96261,62.177243 -0.98797,1.98495 -2.88582,2.80143 -9.10334,3.91603 -6.72051,1.20483 -9.53295,0.97484 -10.79126,-0.88271 z m 10.80702,-81.965618 c -1.12117,-0.765235 -2.00947,-4.999287 -2.05503,-9.796228 -0.044,-4.534608 1.29492,-8.109025 4.16543,-11.124273 2.41801,-2.540315 4.67553,-2.994918 7.48208,-1.506913 2.09085,1.108577 2.33822,1.500504 4.84829,7.681317 1.4547,3.582355 2.73704,7.121507 2.84943,7.865029 0.34985,2.314924 -1.68223,3.691337 -8.49896,5.75538 -6.41915,1.943764 -7.40691,2.070161 -8.79124,1.125688 z"
       id="path194" /></g></svg>
