<?xml version="1.0" encoding="UTF-8" standalone="no"?>
<!-- Created with Inkscape (http://www.inkscape.org/) -->

<svg
   width="11713.504mm"
   height="11822.066mm"
   viewBox="0 0 11713.504 11822.067"
   version="1.1"
   id="svg5"
   xml:space="preserve"
   sodipodi:docname="favicon.svg"
   inkscape:version="1.2.2 (b0a8486541, 2022-12-01)"
   xmlns:inkscape="http://www.inkscape.org/namespaces/inkscape"
   xmlns:sodipodi="http://sodipodi.sourceforge.net/DTD/sodipodi-0.dtd"
   xmlns="http://www.w3.org/2000/svg"
   xmlns:svg="http://www.w3.org/2000/svg"><sodipodi:namedview
     id="namedview7"
     pagecolor="#ffffff"
     bordercolor="#000000"
     borderopacity="0.25"
     inkscape:showpageshadow="2"
     inkscape:pageopacity="0.0"
     inkscape:pagecheckerboard="0"
     inkscape:deskcolor="#d1d1d1"
     inkscape:document-units="mm"
     showgrid="false"
     inkscape:zoom="0.01"
     inkscape:cx="2700"
     inkscape:cy="17150"
     inkscape:window-width="1920"
     inkscape:window-height="1012"
     inkscape:window-x="0"
     inkscape:window-y="29"
     inkscape:window-maximized="1"
     inkscape:current-layer="layer1" /><defs
     id="defs2" /><g
     inkscape:label="Camada 1"
     inkscape:groupmode="layer"
     id="layer1"
     transform="translate(-70.535599,-61.368384)"><path
       style="fill:#40a770;fill-opacity:1;stroke-width:25.319"
       d="m 5256.8255,11858.016 c -519.3198,-72.567 -988.5671,-191.249 -1405.2081,-355.404 C 2689.0364,11044.558 1699.7589,10233.868 1014.1856,9177.4014 521.7443,8418.55 183.03558,7455.1409 89.23551,6546.5091 51.729723,6183.1943 73.478721,5355.8137 129.21022,5025.794 295.67527,4040.0541 688.40681,3127.248 1288.746,2330.743 1614.7409,1898.2265 2184.7149,1369.5415 2686.94,1033.8346 4617.046,-256.32434 7194.9301,-263.34035 9135.9969,1016.2827 c 1398.0761,921.6632 2304.8581,2337.4778 2591.8661,4046.8406 54.107,322.2484 73.668,1050.0087 38.468,1431.1767 -219.884,2381.064 -1867.4428,4424.011 -4148.0172,5143.48 -272.8946,86.091 -617.2946,160.762 -978.0295,212.05 -286.3678,40.715 -1115.5578,45.621 -1383.4588,8.186 z m 563.3496,-13.941 c -31.3324,-6.035 -82.6035,-6.035 -113.9359,0 -31.3324,6.035 -5.6966,10.973 56.9681,10.973 62.6644,0 88.3002,-4.938 56.9678,-10.973 z m 354.815,0.05 c -31.1408,-6.01 -88.1089,-6.166 -126.5951,-0.342 -38.4866,5.82 -13.0078,10.737 56.6196,10.927 69.6274,0.189 101.1164,-4.571 69.9755,-10.581 z m -734.6013,-24.266 c -17.4067,-7.024 -45.8905,-7.024 -63.2976,0 -17.4066,7.024 -3.1649,12.77 31.6488,12.77 34.8137,0 49.0558,-5.746 31.6488,-12.77 z m 1050.2143,1.47 c -8.4134,-8.413 -30.251,-9.312 -48.5282,-1.998 -20.1982,8.083 -14.1984,14.082 15.2969,15.297 26.6903,1.1 41.6447,-4.885 33.2313,-13.298 z m -1265.9536,-25.319 c -8.4134,-8.413 -30.2515,-9.312 -48.5282,-1.998 -20.1978,8.083 -14.1988,14.082 15.2969,15.297 26.6902,1.099 41.6443,-4.885 33.2313,-13.298 z m 1481.6929,-1.47 c -17.4066,-7.024 -45.8909,-7.024 -63.2976,0 -17.407,7.024 -3.1649,12.771 31.6488,12.771 34.8137,0 49.0559,-5.747 31.6488,-12.771 z m -1785.5216,-49.167 c -8.4134,-8.413 -30.2514,-9.313 -48.5286,-1.998 -20.1977,8.082 -14.1983,14.082 15.297,15.296 26.6906,1.1 41.6447,-4.884 33.2316,-13.297 z m 2076.1637,0 c -8.4134,-8.413 -30.2514,-9.313 -48.5286,-1.998 -20.1973,8.082 -14.1983,14.082 15.2974,15.296 26.6902,1.1 41.6443,-4.884 33.2312,-13.297 z m -597.1534,-339.825 c 1673.9487,-165.821 3186.8668,-1103.663 4080.0129,-2529.1558 489.208,-780.7923 767.503,-1644.1065 830.554,-2576.5101 35.905,-530.9583 -14.242,-1137.9069 -131.265,-1588.7404 -73.987,-285.0383 -204.06,-705.5995 -227.894,-736.8436 -10.94,-14.3417 -53.173,-112.5072 -93.851,-218.1457 -86.009,-223.3621 -358.93,-707.8993 -553.093,-981.949 C 9878.3841,2173.0552 9217.8616,1584.3982 8548.3049,1209.2654 8000.9373,902.59111 7226.8841,650.61444 6578.3419,567.98531 6300.19,532.54673 5575.1376,533.34221 5301.0456,569.38583 4623.0362,658.54617 3950.6197,867.55009 3408.5335,1157.6247 2569.5793,1606.5552 1897.244,2222.2233 1390.501,3005.5676 1211.7434,3281.899 929.78667,3847.1812 886.56762,4015.8812 c -21.09169,82.3296 -65.69982,209.4323 -99.12867,282.4511 -86.36728,188.6512 -212.46895,851.5886 -245.99513,1293.2365 -66.59059,877.2159 108.80106,1831.4463 484.70708,2637.0868 189.0945,405.2663 151.7391,341.2387 580.3359,994.699 48.2848,73.6175 119.2197,156.2294 157.6328,183.5817 38.4128,27.3528 99.7418,100.7526 136.2862,163.111 36.5445,62.3584 143.0127,180.1185 236.5964,261.6893 93.5834,81.5707 221.0345,197.6324 283.2244,257.9154 62.1898,60.282 223.0875,191.48 357.5502,291.55 1020.5546,759.523 2388.8959,1146.5 3622.0543,1024.343 z M 3203.8535,9520.6867 c -246.0598,-81.4061 -383.1555,-174.5512 -489.6375,-332.6682 -172.0627,-255.4984 -207.7931,-503.9474 -115.465,-802.872 56.6493,-183.4087 157.559,-345.9897 357.239,-575.5668 129.1633,-148.5022 444.0967,-403.793 498.1298,-403.793 30.1085,0 80.0194,125.9627 263.8003,665.7686 125.8822,369.7442 128.8877,375.2999 231.8925,428.6614 82.1651,42.5658 150.1225,54.1939 319.5693,54.6826 208.4053,0.5999 672.5956,-54.5328 649.9336,-77.1944 -6.1451,-6.1451 -110.9553,2.1057 -232.9115,18.3354 -295.6019,39.337 -667.398,22.7242 -753.4616,-33.6665 -49.3016,-32.3037 -81.8028,-97.1299 -132.7798,-264.8409 -37.1244,-122.1369 -105.4687,-319.522 -151.8758,-438.6337 -46.4072,-119.1117 -91.3552,-244.4412 -99.8843,-278.51 l -15.507,-61.9428 247.9775,-1.6435 c 170.2756,-1.13 325.1374,-20.4945 494.2232,-61.8031 135.4354,-33.0875 241.5951,-64.8102 235.9106,-70.4939 -5.6842,-5.6846 -112.2085,13.5812 -236.7201,42.8135 -287.3684,67.466 -739.0054,75.0032 -800.6469,13.3616 -21.8833,-21.8834 -39.7873,-49.4148 -39.7873,-61.1815 0,-34.2218 -284.6077,-692.4881 -451.8962,-1045.1871 -170.004,-358.4228 -446.5023,-856.7342 -653.5819,-1177.8988 -168.8683,-261.9017 -261.7518,-443.6215 -261.7518,-512.0981 0,-86.1997 68.1915,-192.459 183.1705,-285.4258 644.6044,-521.1993 2318.7271,-1280.5384 3636.6646,-1649.4976 530.5986,-148.5421 784.241,-197.096 1041.4266,-199.3574 339.7542,-2.9872 369.8655,30.3985 469.7107,520.7937 136.2706,669.2966 306.2137,1260.0312 557.7112,1938.6357 89.416,241.2679 162.5745,463.3555 162.5745,493.5279 0,74.1338 -348.3933,409.6855 -445.9536,429.5163 -90.1705,18.3282 -630.1627,379.0988 -710.7171,474.8322 -125.4247,149.0588 -1357.9435,703.022 -1939.1113,871.5458 -136.0631,39.4546 -243.0162,76.107 -237.6733,81.449 20.0945,20.0946 596.6442,-154.5594 852.1864,-258.1529 341.58,-138.4714 739.2094,-317.344 913.6658,-411.0098 75.3915,-40.4778 206.9304,-110.5762 292.3085,-155.7737 85.3786,-45.1979 165.1336,-103.2257 177.2335,-128.9506 27.2042,-57.8359 587.0146,-430.4443 646.7032,-430.4443 63.8063,0 398.108,-297.9517 481.0584,-428.7514 l 71.5761,-112.8633 v 80.4018 c 0,91.5699 62.1898,264.5764 130.7901,363.8449 25.5438,36.9635 46.4434,91.4618 46.4434,121.1073 0,29.6456 28.4839,110.1117 63.2976,178.8131 75.491,148.9745 77.3815,169.3509 17.4773,188.3641 -25.2013,7.9987 -90.7146,57.7544 -145.5847,110.5686 -54.8701,52.8139 -133.9449,117.1799 -175.7217,143.0349 -95.2298,58.9373 -332.6297,272.6107 -715.4656,643.9607 -509.3436,494.0611 -722.6344,678.0275 -824.0937,710.7918 -53.0049,17.1171 -212.5149,85.8748 -354.4669,152.7963 -141.9524,66.921 -326.322,141.481 -409.7101,165.6897 -83.3885,24.2083 -192.2915,65.2165 -242.0067,91.1293 -49.7152,25.9128 -169.4822,74.7386 -266.1491,108.5015 -96.667,33.7629 -161.9811,62.2351 -145.1422,63.2719 16.8389,1.0363 142.1684,-38.8179 278.5097,-88.5648 136.3416,-49.7473 321.952,-116.5286 412.4678,-148.4038 90.5154,-31.8749 279.7123,-110.8055 420.4367,-175.4009 140.7245,-64.5957 268.9021,-117.4469 284.8396,-117.4469 88.0443,0 16.3152,58.8517 -553.3618,454.0141 -629.3756,436.5729 -1527.5232,799.958 -2132.8941,862.9565 -327.214,34.0511 -633.2542,16.9023 -785.5429,-44.0178 -114.6509,-45.8648 -283.2366,-230.1276 -324.2523,-354.4063 -42.8064,-129.7047 -17.6546,-427.7174 46.6921,-553.2296 29.0671,-56.6971 106.1241,-168.486 171.2376,-248.4197 142.0518,-174.3833 130.4544,-222.1836 -15.5635,-64.1456 -311.2378,336.8591 -394.4148,887.8417 -167.1314,1107.1142 44.3021,42.74 171.6977,121.1242 283.1016,174.1858 l 202.5525,96.4762 329.148,-2.8553 c 291.2123,-2.5269 369.1162,-13.3447 675.9335,-93.8667 190.732,-50.0561 432.7644,-119.873 537.8492,-155.1489 224.6185,-75.4023 975.0974,-445.7681 1102.9125,-544.2942 48.739,-37.5703 156.9783,-110.1634 240.531,-161.3177 253.6324,-155.2842 612.6211,-469.7974 1303.9323,-1142.3873 540.0455,-525.4211 940.3672,-887.8887 1034.2134,-936.4181 43.3408,-22.4123 141.9178,-92.1589 219.0608,-154.9927 77.1422,-62.8334 225.3156,-154.6153 329.2741,-203.9603 184.6671,-87.654 251.5436,-137.0194 184.9514,-136.5219 -38.8877,0.2931 -207.0456,83.5089 -487.3148,241.1646 -110.5393,62.1801 -210.0018,113.0546 -221.0272,113.0546 -31.4392,0 -127.3436,-203.6627 -113.2272,-240.45 6.9623,-18.1435 135.9354,-61.9701 286.6067,-97.3929 150.671,-35.4229 348.0058,-92.0714 438.5216,-125.8857 362.1054,-135.2728 517.5125,-109.8149 596.7869,97.7616 41.7285,109.266 41.859,124.1289 2.1891,249.9748 -63.8477,202.548 -211.4745,408.1328 -474.8595,661.2882 -503.0563,483.5187 -1564.6892,1234.9774 -2529.4286,1790.4131 -592.2747,340.9942 -1695.8538,820.0739 -2164.781,939.7626 -420.338,107.2868 -657.1693,147.7433 -924.146,157.8677 -260.5331,9.8802 -311.3734,4.3575 -483.1897,-52.4858 z M 5003.6348,8443.8689 c -62.8611,-20.1319 -62.8921,-20.2889 -4.4639,-22.7957 68.9171,-2.9557 438.118,-123.2961 468.0049,-152.5449 11.2514,-11.0113 -3.4749,-65.9357 -32.7262,-122.0546 -29.2504,-56.1188 -62.4672,-157.4308 -73.8146,-225.1377 -27.721,-165.4017 -114.6229,-382.9094 -181.3745,-453.9631 -43.3107,-46.1021 -52.5179,-81.841 -45.1039,-175.0668 8.5077,-106.9676 4.8943,-115.9805 -41.6134,-103.7966 -28.0113,7.3385 -136.3814,32.2362 -240.8226,55.3286 -303.4178,67.0865 -567.6259,137.2074 -605.7411,160.764 -29.7306,18.3744 -28.6621,35.6574 6.8298,110.4502 23.1414,48.7671 35.2297,106.5058 26.8632,128.3089 -18.4884,48.1797 98.0114,361.3794 178.5855,480.1117 32.0804,47.2734 88.9349,138.1779 126.343,202.0103 67.8305,115.744 68.4397,116.0829 224.5354,125.0031 269.082,15.3773 263.7439,15.5588 194.4984,-6.6174 z m 145.0574,-15.2973 c -8.4134,-8.4131 -30.251,-9.3125 -48.5282,-1.9981 -20.1982,8.0826 -14.1984,14.0819 15.297,15.297 26.6902,1.0994 41.6446,-4.8847 33.2312,-13.2981 z M 4616.9918,7263.8945 c -8.4134,-8.4134 -30.2514,-9.3128 -48.5282,-1.9984 -20.1982,8.0825 -14.1984,14.0823 15.297,15.297 26.6902,1.0994 41.6446,-4.8851 33.2312,-13.2982 z m 114.4631,-26.7905 c -17.4066,-7.0237 -45.8909,-7.0237 -63.2976,0 -17.407,7.0237 -3.1649,12.7709 31.6488,12.7709 34.8137,0 49.0559,-5.7472 31.6488,-12.7709 z m 2599.5065,-563.0782 c -58.4968,-98.0715 -129.2517,-198.5688 -157.2325,-223.3272 -49.6661,-43.9462 -50.4897,-43.4311 -34.6727,21.6979 8.9109,36.6921 53.343,123.4327 98.7381,192.7569 45.3946,69.3243 104.7266,164.6324 131.8488,211.7966 44.6209,77.5932 50.1866,80.5023 58.4948,30.5707 5.4148,-32.5442 -34.4507,-128.3334 -97.1765,-233.4949 z m 232.4513,-31.7118 c 47.3361,-16.0712 133.7193,-72.5647 191.9623,-125.5416 58.2434,-52.9768 147.49,-113.7005 198.3254,-134.9407 86.3547,-36.0813 91.2932,-44.0539 75.1574,-121.3193 -24.6596,-118.0794 -93.8558,-229.6229 -164.2056,-264.696 -69.6868,-34.7427 -137.7968,-3.4585 -298.295,137.0126 -51.7622,45.3027 -159.6256,108.0795 -239.6974,139.5042 -80.0715,31.4244 -145.5847,63.9718 -145.5847,72.3278 0,8.356 45.3259,85.3211 100.7241,171.0325 107.0202,165.5813 132.7636,177.156 281.6135,126.6205 z M 3383.2143,4290.3787 c 906.5457,-211.6184 2074.4559,-680.9928 2835.7362,-1139.6618 488.9362,-294.5826 443.1662,-286.2919 -215.9807,39.1227 -980.2965,483.9625 -2223.7731,957.7575 -2932.2117,1117.2434 -155.398,34.9836 -293.9355,74.8655 -307.8609,88.6258 -37.3797,36.9375 139.5875,6.8884 620.3171,-105.3301 z m 6206.4024,6235.9833 c 31.4938,-40.157 30.598,-41.053 -9.5594,-9.559 -24.3697,19.112 -44.3084,39.051 -44.3084,44.309 0,20.838 20.7916,7.426 53.8678,-34.75 z m -7421.7177,-91.846 c 0,-5.257 -19.9387,-25.196 -44.3084,-44.308 -40.1575,-31.494 -41.0531,-30.598 -9.5594,9.559 33.0761,42.175 53.8678,55.588 53.8678,34.749 z m 7608.3809,-66.397 c 25.2049,-27.852 40.1305,-50.639 33.1674,-50.639 -6.9627,0 -33.2814,22.787 -58.4863,50.639 -25.205,27.85 -40.1301,50.637 -33.1675,50.637 6.9627,0 33.2819,-22.787 58.4864,-50.637 z m 468.4031,-468.4037 c 32.706,-34.8137 53.768,-63.2976 46.805,-63.2976 -6.962,0 -39.418,28.4839 -72.124,63.2976 -32.706,34.8141 -53.769,63.298 -46.806,63.298 6.963,0 39.419,-28.4839 72.125,-63.298 z m -8633.8036,-22.2187 c 0,-5.2577 -19.9386,-25.1965 -44.3083,-44.3084 -40.1576,-31.4934 -41.0531,-30.5984 -9.5596,9.5594 33.0761,42.1755 53.8679,55.5876 53.8679,34.749 z m -101.2762,-126.5955 c 0,-5.2578 -19.9388,-25.1961 -44.3084,-44.3085 -40.1575,-31.4934 -41.0531,-30.598 -9.5594,9.5598 33.0761,42.1751 53.8678,55.5873 53.8678,34.7487 z m -75.9572,-100.4523 c 0,-4.8044 -25.6355,-30.4398 -56.9679,-56.9677 l -56.968,-48.2327 48.2326,56.9681 c 45.3266,53.5358 65.7033,68.4943 65.7033,48.2323 z m 9143.414,-162.1682 c 31.494,-40.1573 30.599,-41.0532 -9.559,-9.5594 -24.369,19.112 -44.309,39.0508 -44.309,44.3081 0,20.8386 20.792,7.4264 53.868,-34.7487 z M 11679.847,6844.02 c -8.083,-20.1982 -14.082,-14.1984 -15.297,15.2969 -1.1,26.6902 4.884,41.6447 13.298,33.2313 8.413,-8.4134 9.313,-30.2511 1.998,-48.5282 z m 25.319,-177.2335 c -8.083,-20.1982 -14.082,-14.1988 -15.297,15.297 -1.099,26.6902 4.885,41.6442 13.298,33.2312 8.413,-8.4134 9.313,-30.2514 1.998,-48.5282 z M 134.6002,6450.4734 c -6.41938,-24.6344 -12.09391,-10.6095 -12.61001,31.1673 -0.51586,41.7764 4.7364,61.932 11.67188,44.7903 6.93548,-17.142 7.35751,-51.3229 0.93836,-75.9576 z m 11596.1348,-75.9573 c -6.42,-24.6343 -12.094,-10.609 -12.61,31.1674 -0.516,41.7763 4.736,61.9319 11.672,44.7899 6.935,-17.1417 7.357,-51.3222 0.938,-75.9573 z M 110.17943,5842.3339 c -5.46257,-52.2204 -9.9317,-9.4948 -9.9317,94.9467 0,104.4412 4.46913,147.1672 9.9317,94.9464 5.46235,-52.2204 5.46235,-137.6724 0,-189.8931 z M 11755.276,5956.2698 c -7.023,-17.4071 -12.77,-3.165 -12.77,31.6487 0,34.8138 5.747,49.0559 12.77,31.6488 7.024,-17.4066 7.024,-45.8905 0,-63.2975 z m -25.319,-531.7004 c -7.023,-17.4071 -12.77,-3.165 -12.77,31.6487 0,34.8138 5.747,49.0555 12.77,31.6488 7.024,-17.407 7.024,-45.8909 0,-63.2975 z M 133.82267,5399.2504 c -7.02372,-17.4071 -12.7706,-3.1653 -12.7706,31.6484 0,34.8137 5.74688,49.0558 12.7706,31.6492 7.02371,-17.4071 7.02371,-45.8909 0,-63.2976 z M 11704.638,5171.3786 c -7.024,-17.407 -12.77,-3.1649 -12.77,31.6488 0,34.8137 5.746,49.0555 12.77,31.6488 7.024,-17.407 7.024,-45.8909 0,-63.2976 z M 159.66918,5147.6417 c -8.08252,-20.1973 -14.08197,-14.1983 -15.2967,15.297 -1.09943,26.6906 4.88462,41.6447 13.2979,33.2313 8.41328,-8.4135 9.31266,-30.2511 1.99811,-48.5283 z m 25.31898,-151.9141 c -8.08228,-20.1981 -14.08197,-14.1983 -15.2967,15.297 -1.09943,26.6902 4.88485,41.6447 13.29814,33.2312 8.41327,-8.4134 9.31243,-30.2514 1.9981,-48.5282 z M 1234.3231,2500.2162 c 31.4935,-40.1575 30.5981,-41.0531 -9.5594,-9.5594 -42.1754,33.0761 -55.5877,53.8678 -34.749,53.8678 5.2576,0 25.1964,-19.9387 44.3084,-44.3084 z m 9288.8689,-167.8035 c 0,-5.2576 -19.938,-25.1964 -44.308,-44.3084 -40.157,-31.4938 -41.053,-30.5981 -9.559,9.5593 33.076,42.1753 53.867,55.5875 53.867,34.7491 z m -151.914,-177.2335 c 0,-5.2577 -19.938,-25.1965 -44.308,-44.3085 -40.158,-31.4937 -41.053,-30.5981 -9.56,9.5594 33.077,42.1754 53.868,55.5877 53.868,34.7491 z M 1686.8368,1949.5265 c 75.6385,-76.5902 131.8282,-139.2549 124.8654,-139.2549 -6.9627,0 -74.5458,62.6647 -150.1846,139.2549 -75.6386,76.5902 -131.8283,139.2549 -124.8655,139.2549 6.9628,0 74.5459,-62.6647 150.1847,-139.2549 z m 8380.6122,-126.5954 c -103.7438,-104.4411 -194.3218,-189.893 -201.2849,-189.893 -6.9627,0 72.2221,85.4519 175.9659,189.893 103.744,104.4412 194.322,189.8931 201.285,189.8931 6.963,0 -72.222,-85.4519 -175.966,-189.8931 z M 2044.5333,1588.7296 c 31.4937,-40.1574 30.5981,-41.0531 -9.5594,-9.5594 -42.1752,33.0761 -55.5874,53.8679 -34.7488,53.8679 5.2574,0 25.1962,-19.9388 44.3082,-44.3085 z m 151.9146,-126.5954 c 31.4935,-40.1574 30.5981,-41.0528 -9.5596,-9.5594 -24.3697,19.1121 -44.3082,39.0509 -44.3082,44.3083 0,20.8386 20.7917,7.4264 53.8678,-34.7489 z m 136.0252,-107.6061 c 25.2049,-27.8509 40.1302,-50.6379 33.1674,-50.6379 -6.9628,0 -33.2817,22.787 -58.4866,50.6379 -25.2049,27.8512 -40.1302,50.6382 -33.1674,50.6382 6.9628,0 33.2815,-22.787 58.4866,-50.6382 z m 7253.9141,41.0788 c 0,-5.2576 -19.9388,-25.1964 -44.3085,-44.3082 -40.1578,-31.4937 -41.0532,-30.5983 -9.5594,9.5592 33.0758,42.1752 53.8679,55.5877 53.8679,34.749 z M 5047.416,174.55375 c -8.4134,-8.41329 -30.2514,-9.3129 -48.5286,-1.99811 -20.1974,8.08252 -14.1984,14.08197 15.2974,15.29694 26.6902,1.09943 41.6442,-4.88485 33.2312,-13.29813 z m 1822.973,0 c -8.413,-8.41329 -30.2511,-9.3129 -48.5282,-1.99811 -20.1978,8.08252 -14.1984,14.08197 15.2969,15.29694 26.6906,1.09943 41.6447,-4.88485 33.2313,-13.29813 z M 5249.9684,149.23477 c -8.413,-8.41329 -30.251,-9.3129 -48.5282,-1.99811 -20.1977,8.08252 -14.1984,14.08197 15.297,15.29694 26.6906,1.09942 41.6446,-4.88485 33.2312,-13.29813 z m 1431.0551,-1.47057 c -17.4067,-7.02395 -45.891,-7.02395 -63.2976,0 -17.4071,7.02371 -3.1649,12.7706 31.6488,12.7706 34.8137,0 49.0558,-5.74689 31.6488,-12.7706 z M 5466.1896,122.60558 c -17.1417,-6.93548 -51.3221,-7.35751 -75.9569,-0.93836 -24.6347,6.41961 -10.6094,12.09414 31.167,12.61 41.7763,0.51587 61.9319,-4.73616 44.7899,-11.67164 z m 986.9621,-0.16339 c -17.4067,-7.02371 -45.8905,-7.02371 -63.2976,0 -17.407,7.02395 -3.1649,12.7706 31.6488,12.7706 34.8137,0 49.0558,-5.74665 31.6488,-12.7706 z M 6048.0464,95.352917 c -59.183,-5.330693 -156.0286,-5.330693 -215.2116,0 -59.1835,5.330463 -10.7609,9.691743 107.606,9.691743 118.3665,0 166.7891,-4.36128 107.6056,-9.691743 z"
       id="path2066" /></g></svg>
