<?xml version="1.0" encoding="UTF-8" standalone="no"?>
<!-- Created with Inkscape (http://www.inkscape.org/) -->

<svg
   version="1.1"
   id="svg182"
   width="15.999999"
   height="16.119118"
   viewBox="0 0 15.999999 16.119118"
   sodipodi:docname="favicon.svg"
   xml:space="preserve"
   inkscape:version="1.2.2 (b0a8486541, 2022-12-01)"
   xmlns:inkscape="http://www.inkscape.org/namespaces/inkscape"
   xmlns:sodipodi="http://sodipodi.sourceforge.net/DTD/sodipodi-0.dtd"
   xmlns="http://www.w3.org/2000/svg"
   xmlns:svg="http://www.w3.org/2000/svg"><defs
     id="defs186" /><sodipodi:namedview
     id="namedview184"
     pagecolor="#ffffff"
     bordercolor="#000000"
     borderopacity="0.25"
     inkscape:showpageshadow="2"
     inkscape:pageopacity="0.0"
     inkscape:pagecheckerboard="0"
     inkscape:deskcolor="#d1d1d1"
     showgrid="false"
     inkscape:zoom="11.719268"
     inkscape:cx="32.937211"
     inkscape:cy="-8.4476267"
     inkscape:window-width="1920"
     inkscape:window-height="1041"
     inkscape:window-x="0"
     inkscape:window-y="0"
     inkscape:window-maximized="1"
     inkscape:current-layer="g188" /><g
     inkscape:groupmode="layer"
     inkscape:label="Image"
     id="g188"
     transform="translate(-180.22191,-132.78309)"><path
       id="path571"
       style="fill:#35a06c;fill-opacity:1;stroke-width:0.0570771"
       d="m 188.30372,132.7831 c -0.14538,-1.7e-4 -0.29204,0.003 -0.43989,0.0103 -1.75272,0.0834 -3.33349,0.68061 -4.68523,1.76984 -2.04305,1.6463 -3.14573,4.23693 -2.93,6.88371 0.0812,0.99593 0.33917,1.93833 0.74234,2.79733 0.033,0.0485 0.0666,0.0966 0.0975,0.14637 0.0647,0.10388 0.11154,0.21743 0.14894,0.33433 1.2562,2.26745 3.56744,3.86047 6.31248,4.14311 1.69215,0.17422 3.5812,-0.32488 5.13405,-1.35648 0.61126,-0.40607 1.59168,-1.35062 2.02122,-1.9472 0.69601,-0.96666 1.24606,-2.30035 1.42949,-3.46598 0.11401,-0.72448 0.11669,-1.94363 0.006,-2.628 -0.25124,-1.54912 -1.07141,-3.16727 -2.16503,-4.27154 -1.58805,-1.6035 -3.49072,-2.41352 -5.6716,-2.41574 z m -6.84335,2.59712 c -0.007,0.006 -0.0141,0.0126 -0.0215,0.0184 0.002,-0.003 -0.005,0.005 -0.004,0.004 -0.006,0.0161 -0.0121,0.0324 -0.0188,0.0484 0.0158,-0.0243 0.0274,-0.0457 0.0448,-0.0707 z m 8.21789,0.19498 c 0.45994,-0.0229 0.57315,0.15669 0.69273,0.71168 0.18431,0.85547 0.43144,1.7279 0.74523,2.6309 0.17284,0.49735 0.31442,0.94387 0.3146,0.99227 5.1e-4,0.12966 -0.44455,0.53355 -0.75349,0.68381 -0.14774,0.0719 -0.44312,0.26786 -0.65639,0.43555 -0.44196,0.34751 -1.46402,0.86998 -2.43893,1.24678 -0.36578,0.14137 -0.68796,0.25707 -0.71592,0.25707 -0.028,0 -0.1231,0.0298 -0.21147,0.0662 -0.0884,0.0364 -0.1954,0.0604 -0.23779,0.0533 -0.0459,-0.008 -0.0603,0.0142 -0.0357,0.0541 0.0291,0.047 0.005,0.0555 -0.0798,0.0284 -0.0667,-0.0212 -0.12129,-0.0175 -0.12129,0.008 0,0.0257 -0.0963,0.0499 -0.21404,0.0537 -0.11772,0.004 -0.46423,0.0269 -0.76998,0.0512 l -0.55595,0.0442 -0.0925,-0.2224 c -0.53627,-1.28866 -0.94008,-2.09222 -1.61756,-3.21895 -0.40743,-0.6776 -0.42033,-0.71407 -0.32039,-0.90733 0.35522,-0.68691 4.41015,-2.49196 6.48004,-2.88462 0.24346,-0.0462 0.4353,-0.0763 0.58861,-0.0839 z m -0.5409,0.77299 c -0.052,-0.0109 -0.30933,0.10188 -1.1023,0.47613 -1.32103,0.62344 -2.63413,1.12468 -3.76665,1.43774 -0.34558,0.0955 -0.66682,0.19808 -0.71391,0.22786 -0.13124,0.083 0.40248,0.003 1.02739,-0.15339 0.78844,-0.19773 1.9223,-0.59821 2.73971,-0.96764 0.74922,-0.33862 1.82646,-0.93367 1.82646,-1.00888 0,-0.006 -0.003,-0.0103 -0.0107,-0.0118 z m 2.46457,3.62351 0.0367,0.1535 c 0.0202,0.0844 0.0648,0.20488 0.0993,0.26766 0.0345,0.0628 0.11639,0.25405 0.18204,0.42496 l 0.1194,0.31069 -0.48962,0.39542 c -0.2693,0.21743 -0.72078,0.61883 -1.00331,0.89205 -1.06863,1.03345 -1.29167,1.17959 -2.45097,1.60585 -0.2493,0.0917 -0.4603,0.16666 -0.46888,0.16666 -0.0366,0 -0.12652,-0.22322 -0.21794,-0.54145 -0.054,-0.18794 -0.14062,-0.4191 -0.19252,-0.51369 -0.0519,-0.0946 -0.10716,-0.26191 -0.12285,-0.37179 l -0.0285,-0.19977 0.58147,-0.20668 c 0.74937,-0.26632 1.93409,-0.83931 2.18833,-1.05838 0.25453,-0.21931 0.65009,-0.48583 0.94021,-0.63353 0.12557,-0.0639 0.36306,-0.24567 0.52774,-0.40389 z m 1.95534,0.33588 c 0.19969,-4e-4 0.38527,0.18319 0.38527,0.38115 0,0.56877 -0.92957,1.49322 -2.71116,2.69622 -1.90979,1.28958 -3.87344,2.24516 -5.27964,2.56914 -0.29822,0.0687 -0.76055,0.13737 -1.02738,0.15262 -0.42594,0.0243 -0.52601,0.0105 -0.82004,-0.11393 -0.4093,-0.17322 -0.56421,-0.31321 -0.72495,-0.65516 -0.15574,-0.33131 -0.13055,-0.83088 0.0608,-1.20587 0.1577,-0.30913 0.98585,-1.16523 1.09305,-1.12995 0.0425,0.014 0.18718,0.33174 0.3215,0.706 0.31389,0.87461 0.37928,0.93764 0.97176,0.93631 0.45405,-0.001 1.19076,-0.12838 1.28446,-0.22207 0.0294,-0.0294 0.086,-0.0408 0.12586,-0.0255 0.0802,0.0308 0.83564,-0.22641 1.36907,-0.46609 0.18835,-0.0846 0.40668,-0.17719 0.48516,-0.20568 l 0.14269,-0.0518 -0.14269,0.11527 c -0.0785,0.0634 -0.3878,0.2814 -0.68738,0.48449 -1.5282,1.03595 -3.56869,1.59658 -4.34667,1.19427 -0.27726,-0.14338 -0.44536,-0.42728 -0.44536,-0.75215 0,-0.35113 0.0637,-0.53178 0.28706,-0.81379 0.21056,-0.26586 0.22447,-0.41147 0.0212,-0.22184 -0.28463,0.2655 -0.44601,0.66729 -0.44859,1.11679 -0.003,0.4809 0.0428,0.54996 0.53677,0.81324 0.29168,0.15547 0.38861,0.17737 0.78158,0.17703 1.0515,-9.4e-4 2.5597,-0.54265 3.77801,-1.35703 0.54984,-0.36755 1.03235,-0.78607 2.37372,-2.05924 0.8631,-0.81921 1.52178,-1.33516 2.15132,-1.68511 0.112,-0.0623 0.16294,-0.11851 0.12095,-0.13356 -0.0632,-0.0226 -0.20767,0.0431 -0.92538,0.42084 -0.1299,0.0684 -0.14819,0.0623 -0.2185,-0.0719 -0.0422,-0.0806 -0.0642,-0.15898 -0.0488,-0.17435 0.0565,-0.0565 1.38445,-0.41798 1.5364,-0.41827 z m -2.52042,0.51336 c -0.0502,0 -0.21345,0.087 -0.36286,0.19319 -0.14942,0.10623 -0.34985,0.22547 -0.44525,0.26499 -0.11091,0.0459 -0.16231,0.10086 -0.14258,0.15228 0.017,0.0444 0.006,0.0647 -0.0255,0.0455 -0.11255,-0.0696 -0.0523,0.14102 0.12909,0.45138 0.10203,0.17454 0.20477,0.31788 0.22831,0.3185 0.0617,0.002 0.0526,-0.15932 -0.0163,-0.28807 -0.0516,-0.0965 -0.0397,-0.11036 0.0954,-0.11036 0.0863,0 0.31612,-0.1069 0.52016,-0.24202 0.33896,-0.22447 0.36303,-0.25433 0.33187,-0.41013 -0.04,-0.20024 -0.18572,-0.37524 -0.31236,-0.37524 z m -5.57372,2.13259 c 0.185,-0.007 0.20373,0.0207 0.25172,0.12608 0.0361,0.0792 0.0657,0.20492 0.0657,0.27948 0,0.2012 0.45921,1.06165 0.59619,1.11713 0.0924,0.0374 0.0688,0.0485 -0.11103,0.0519 -0.12557,0.002 -0.27968,0.0142 -0.34246,0.0262 -0.13008,0.0248 -0.53939,-0.0364 -0.63376,-0.0949 -0.0642,-0.0398 -0.56643,-1.40423 -0.52863,-1.43618 0.0114,-0.01 0.21599,-0.0333 0.45461,-0.0526 0.10583,-0.009 0.18604,-0.0148 0.2477,-0.0172 z" /></g></svg>
